<svg width="1192" height="269" viewBox="0 0 1192 269" fill="none" xmlns="http://www.w3.org/2000/svg">
<rect x="186" width="1006" height="269" fill="white"/>
<rect width="287" height="269" fill="black"/>
<ellipse cx="144" cy="133.879" rx="101" ry="100.879" fill="black"/>
<ellipse cx="145.116" cy="131.707" rx="50.779" ry="50.7183" fill="white"/>
<path d="M97.0643 139.834C95.8018 129.747 97.6851 113.912 102.149 108.89L112.751 113.912L124.47 119.492L140.094 126.188L148.827 137.312C145.039 146.56 153.877 170.098 148.827 180.186C109.689 180.186 98.5081 151.37 97.0643 139.834Z" fill="black" stroke="white" stroke-width="3"/>
<path d="M144 234.758V137.662L149.05 133.879C159.15 159.099 180.612 212.817 185.662 225.931C175.562 232.236 157.887 236.019 144 234.758Z" fill="white"/>
<g filter="url(#filter0_d_0_1)">
<ellipse rx="15.1499" ry="15.132" transform="matrix(0.998044 0.0625214 -0.0626706 0.998034 144 133.879)" fill="white"/>
</g>
<ellipse cx="144" cy="133.879" rx="10.1" ry="10.0879" fill="black"/>
<path d="M401.488 83.594C403.192 86.718 405.133 90.5993 407.31 95.238C409.582 99.782 411.901 104.752 414.268 110.148C416.729 115.449 419.143 120.893 421.51 126.478C423.877 132.063 426.101 137.317 428.184 142.24C430.267 137.317 432.491 132.063 434.858 126.478C437.225 120.893 439.591 115.449 441.958 110.148C444.419 104.752 446.739 99.782 448.916 95.238C451.188 90.5993 453.176 86.718 454.88 83.594H475.044C475.991 90.126 476.843 97.4627 477.6 105.604C478.452 113.651 479.162 122.076 479.73 130.88C480.393 139.589 480.961 148.346 481.434 157.15C482.002 165.954 482.475 174.237 482.854 182H461.27C460.986 172.439 460.607 162.025 460.134 150.76C459.661 139.495 458.951 128.135 458.004 116.68C456.3 120.656 454.407 125.058 452.324 129.886C450.241 134.714 448.159 139.542 446.076 144.37C444.088 149.198 442.147 153.837 440.254 158.286C438.361 162.641 436.751 166.38 435.426 169.504H419.948C418.623 166.38 417.013 162.641 415.12 158.286C413.227 153.837 411.239 149.198 409.156 144.37C407.168 139.542 405.133 134.714 403.05 129.886C400.967 125.058 399.074 120.656 397.37 116.68C396.423 128.135 395.713 139.495 395.24 150.76C394.767 162.025 394.388 172.439 394.104 182H372.52C372.899 174.237 373.325 165.954 373.798 157.15C374.366 148.346 374.934 139.589 375.502 130.88C376.165 122.076 376.875 113.651 377.632 105.604C378.484 97.4627 379.383 90.126 380.33 83.594H401.488ZM497.829 145.222C497.829 138.595 498.823 132.821 500.811 127.898C502.894 122.881 505.592 118.715 508.905 115.402C512.219 112.089 516.005 109.58 520.265 107.876C524.62 106.172 529.069 105.32 533.613 105.32C544.216 105.32 552.594 108.586 558.747 115.118C564.901 121.555 567.977 131.069 567.977 143.66C567.977 144.891 567.93 146.263 567.835 147.778C567.741 149.198 567.646 150.476 567.551 151.612H519.555C520.029 155.967 522.064 159.422 525.661 161.978C529.259 164.534 534.087 165.812 540.145 165.812C544.027 165.812 547.813 165.481 551.505 164.818C555.292 164.061 558.369 163.161 560.735 162.12L563.575 179.302C562.439 179.87 560.925 180.438 559.031 181.006C557.138 181.574 555.008 182.047 552.641 182.426C550.369 182.899 547.908 183.278 545.257 183.562C542.607 183.846 539.956 183.988 537.305 183.988C530.584 183.988 524.715 182.994 519.697 181.006C514.775 179.018 510.657 176.32 507.343 172.912C504.125 169.409 501.711 165.291 500.101 160.558C498.587 155.825 497.829 150.713 497.829 145.222ZM547.529 137.128C547.435 135.329 547.103 133.578 546.535 131.874C546.062 130.17 545.257 128.655 544.121 127.33C543.08 126.005 541.707 124.916 540.003 124.064C538.394 123.212 536.359 122.786 533.897 122.786C531.531 122.786 529.495 123.212 527.791 124.064C526.087 124.821 524.667 125.863 523.531 127.188C522.395 128.513 521.496 130.075 520.833 131.874C520.265 133.578 519.839 135.329 519.555 137.128H547.529ZM629.745 139.116C627.852 146.311 625.817 153.458 623.639 160.558C621.557 167.658 619.332 174.805 616.965 182H600.493C598.789 178.024 596.943 173.291 594.955 167.8C592.967 162.309 590.885 156.345 588.707 149.908C586.625 143.376 584.447 136.513 582.175 129.318C579.998 122.029 577.868 114.692 575.785 107.308H598.079C598.837 110.716 599.641 114.455 600.493 118.526C601.44 122.502 602.387 126.62 603.333 130.88C604.375 135.14 605.416 139.447 606.457 143.802C607.593 148.062 608.729 152.18 609.865 156.156C611.096 151.991 612.279 147.731 613.415 143.376C614.646 139.021 615.782 134.761 616.823 130.596C617.959 126.336 619.001 122.265 619.947 118.384C620.989 114.408 621.888 110.716 622.645 107.308H637.981C638.739 110.716 639.591 114.408 640.537 118.384C641.484 122.265 642.478 126.336 643.519 130.596C644.561 134.761 645.649 139.021 646.785 143.376C647.921 147.731 649.105 151.991 650.335 156.156C651.471 152.18 652.607 148.062 653.743 143.802C654.879 139.447 655.921 135.14 656.867 130.88C657.909 126.62 658.855 122.502 659.707 118.526C660.654 114.455 661.506 110.716 662.263 107.308H684.273C682.191 114.692 680.013 122.029 677.741 129.318C675.564 136.513 673.387 143.376 671.209 149.908C669.127 156.345 667.044 162.309 664.961 167.8C662.973 173.291 661.127 178.024 659.423 182H642.951C640.585 174.805 638.265 167.658 635.993 160.558C633.721 153.458 631.639 146.311 629.745 139.116ZM723.917 165.102C727.041 165.102 729.597 164.865 731.585 164.392C733.667 163.824 735.324 163.114 736.555 162.262C737.785 161.315 738.637 160.227 739.111 158.996C739.584 157.765 739.821 156.393 739.821 154.878C739.821 151.659 738.306 149.009 735.277 146.926C732.247 144.749 727.041 142.429 719.657 139.968C716.438 138.832 713.219 137.554 710.001 136.134C706.782 134.619 703.895 132.773 701.339 130.596C698.783 128.324 696.7 125.626 695.091 122.502C693.481 119.283 692.677 115.402 692.677 110.858C692.677 106.314 693.529 102.243 695.233 98.646C696.937 94.954 699.351 91.83 702.475 89.274C705.599 86.718 709.385 84.7773 713.835 83.452C718.284 82.032 723.301 81.322 728.887 81.322C735.513 81.322 741.241 82.032 746.069 83.452C750.897 84.872 754.873 86.434 757.997 88.138L751.607 105.604C748.861 104.184 745.785 102.953 742.377 101.912C739.063 100.776 735.04 100.208 730.307 100.208C725.005 100.208 721.171 100.965 718.805 102.48C716.533 103.9 715.397 106.125 715.397 109.154C715.397 110.953 715.823 112.467 716.675 113.698C717.527 114.929 718.71 116.065 720.225 117.106C721.834 118.053 723.633 118.952 725.621 119.804C727.703 120.561 729.975 121.366 732.437 122.218C737.549 124.111 741.998 126.005 745.785 127.898C749.571 129.697 752.695 131.827 755.157 134.288C757.713 136.749 759.606 139.637 760.837 142.95C762.067 146.263 762.683 150.287 762.683 155.02C762.683 164.203 759.464 171.35 753.027 176.462C746.589 181.479 736.886 183.988 723.917 183.988C719.562 183.988 715.633 183.704 712.131 183.136C708.628 182.663 705.504 182.047 702.759 181.29C700.108 180.533 697.789 179.728 695.801 178.876C693.907 178.024 692.298 177.219 690.973 176.462L697.221 158.854C700.155 160.463 703.753 161.931 708.013 163.256C712.367 164.487 717.669 165.102 723.917 165.102ZM777.597 88.706L798.755 85.298V107.308H824.173V124.916H798.755V151.186C798.755 155.635 799.513 159.185 801.027 161.836C802.637 164.487 805.808 165.812 810.541 165.812C812.813 165.812 815.133 165.623 817.499 165.244C819.961 164.771 822.185 164.155 824.173 163.398L827.155 179.87C824.599 180.911 821.759 181.811 818.635 182.568C815.511 183.325 811.677 183.704 807.133 183.704C801.359 183.704 796.578 182.947 792.791 181.432C789.005 179.823 785.975 177.645 783.703 174.9C781.431 172.06 779.822 168.652 778.875 164.676C778.023 160.7 777.597 156.298 777.597 151.47V88.706ZM908.493 144.512C908.493 150.381 907.641 155.777 905.937 160.7C904.233 165.528 901.772 169.693 898.553 173.196C895.335 176.604 891.453 179.255 886.909 181.148C882.46 183.041 877.443 183.988 871.857 183.988C866.367 183.988 861.349 183.041 856.805 181.148C852.356 179.255 848.522 176.604 845.303 173.196C842.085 169.693 839.576 165.528 837.777 160.7C835.979 155.777 835.079 150.381 835.079 144.512C835.079 138.643 835.979 133.294 837.777 128.466C839.671 123.638 842.227 119.52 845.445 116.112C848.759 112.704 852.64 110.053 857.089 108.16C861.633 106.267 866.556 105.32 871.857 105.32C877.253 105.32 882.176 106.267 886.625 108.16C891.169 110.053 895.051 112.704 898.269 116.112C901.488 119.52 903.997 123.638 905.795 128.466C907.594 133.294 908.493 138.643 908.493 144.512ZM886.909 144.512C886.909 137.98 885.584 132.868 882.933 129.176C880.377 125.389 876.685 123.496 871.857 123.496C867.029 123.496 863.29 125.389 860.639 129.176C857.989 132.868 856.663 137.98 856.663 144.512C856.663 151.044 857.989 156.251 860.639 160.132C863.29 163.919 867.029 165.812 871.857 165.812C876.685 165.812 880.377 163.919 882.933 160.132C885.584 156.251 886.909 151.044 886.909 144.512ZM969.897 126.052C968.004 125.579 965.779 125.105 963.223 124.632C960.667 124.064 957.922 123.78 954.987 123.78C953.662 123.78 952.053 123.922 950.159 124.206C948.361 124.395 946.988 124.632 946.041 124.916V182H924.883V111.284C928.67 109.959 933.119 108.728 938.231 107.592C943.438 106.361 949.213 105.746 955.555 105.746C956.691 105.746 958.064 105.841 959.673 106.03C961.283 106.125 962.892 106.314 964.501 106.598C966.111 106.787 967.72 107.071 969.329 107.45C970.939 107.734 972.311 108.113 973.447 108.586L969.897 126.052ZM979.853 145.222C979.853 138.595 980.847 132.821 982.835 127.898C984.918 122.881 987.616 118.715 990.929 115.402C994.242 112.089 998.029 109.58 1002.29 107.876C1006.64 106.172 1011.09 105.32 1015.64 105.32C1026.24 105.32 1034.62 108.586 1040.77 115.118C1046.92 121.555 1050 131.069 1050 143.66C1050 144.891 1049.95 146.263 1049.86 147.778C1049.76 149.198 1049.67 150.476 1049.57 151.612H1001.58C1002.05 155.967 1004.09 159.422 1007.68 161.978C1011.28 164.534 1016.11 165.812 1022.17 165.812C1026.05 165.812 1029.84 165.481 1033.53 164.818C1037.32 164.061 1040.39 163.161 1042.76 162.12L1045.6 179.302C1044.46 179.87 1042.95 180.438 1041.05 181.006C1039.16 181.574 1037.03 182.047 1034.66 182.426C1032.39 182.899 1029.93 183.278 1027.28 183.562C1024.63 183.846 1021.98 183.988 1019.33 183.988C1012.61 183.988 1006.74 182.994 1001.72 181.006C996.798 179.018 992.68 176.32 989.367 172.912C986.148 169.409 983.734 165.291 982.125 160.558C980.61 155.825 979.853 150.713 979.853 145.222ZM1029.55 137.128C1029.46 135.329 1029.13 133.578 1028.56 131.874C1028.09 130.17 1027.28 128.655 1026.14 127.33C1025.1 126.005 1023.73 124.916 1022.03 124.064C1020.42 123.212 1018.38 122.786 1015.92 122.786C1013.55 122.786 1011.52 123.212 1009.81 124.064C1008.11 124.821 1006.69 125.863 1005.55 127.188C1004.42 128.513 1003.52 130.075 1002.86 131.874C1002.29 133.578 1001.86 135.329 1001.58 137.128H1029.55Z" fill="black"/>
<defs>
<filter id="filter0_d_0_1" x="127.849" y="118.247" width="31.301" height="30.7648" filterUnits="userSpaceOnUse" color-interpolation-filters="sRGB">
<feFlood flood-opacity="0" result="BackgroundImageFix"/>
<feColorMatrix in="SourceAlpha" type="matrix" values="0 0 0 0 0 0 0 0 0 0 0 0 0 0 0 0 0 0 127 0" result="hardAlpha"/>
<feOffset dx="-1" dy="-0.5"/>
<feComposite in2="hardAlpha" operator="out"/>
<feColorMatrix type="matrix" values="0 0 0 0 0 0 0 0 0 0 0 0 0 0 0 0 0 0 1 0"/>
<feBlend mode="normal" in2="BackgroundImageFix" result="effect1_dropShadow_0_1"/>
<feBlend mode="normal" in="SourceGraphic" in2="effect1_dropShadow_0_1" result="shape"/>
</filter>
</defs>
</svg>
